<svg width="19" height="18" viewBox="0 0 19 18" fill="none" xmlns="http://www.w3.org/2000/svg">
<path d="M16.9003 0H2.90027C1.80027 0 0.900269 0.9 0.900269 2V16C0.900269 17.1 1.80027 18 2.90027 18H16.9003C18.0003 18 18.9003 17.1 18.9003 16V2C18.9003 0.9 18.0003 0 16.9003 0ZM10.9003 14H5.90027C5.35027 14 4.90027 13.55 4.90027 13C4.90027 12.45 5.35027 12 5.90027 12H10.9003C11.4503 12 11.9003 12.45 11.9003 13C11.9003 13.55 11.4503 14 10.9003 14ZM13.9003 10H5.90027C5.35027 10 4.90027 9.55 4.90027 9C4.90027 8.45 5.35027 8 5.90027 8H13.9003C14.4503 8 14.9003 8.45 14.9003 9C14.9003 9.55 14.4503 10 13.9003 10ZM13.9003 6H5.90027C5.35027 6 4.90027 5.55 4.90027 5C4.90027 4.45 5.35027 4 5.90027 4H13.9003C14.4503 4 14.9003 4.45 14.9003 5C14.9003 5.55 14.4503 6 13.9003 6Z" fill="#88984A"/>
</svg>
