<svg width="20" height="19" viewBox="0 0 20 19" fill="none" xmlns="http://www.w3.org/2000/svg">
<path d="M19.6842 15.9434V10.4339C19.6842 8.63171 19.6842 7.73068 19.3137 6.93422C18.9431 6.13776 18.2454 5.53912 16.8499 4.34183L15.7944 3.43618C13.1245 1.14539 11.7895 0 10.1842 0C8.57892 0 7.24395 1.14539 4.57402 3.43618L3.51847 4.34183C2.12301 5.53912 1.42529 6.13776 1.05475 6.93422C0.684204 7.73068 0.684204 8.63171 0.684204 10.4339V15.9434C0.684204 16.8929 0.684204 17.3676 0.844902 17.7421C1.05917 18.2414 1.47015 18.6381 1.98742 18.8449C2.37539 19 2.86722 19 3.85087 19H4.20272C4.85714 19 5.18436 19 5.45282 18.9306C6.18135 18.7421 6.7504 18.1929 6.9456 17.4896C7.01754 17.2305 7.01754 16.9147 7.01754 16.283V13.9057C7.01754 12.2175 8.43525 10.8491 10.1842 10.8491C11.9332 10.8491 13.3509 12.2175 13.3509 13.9057V16.283C13.3509 16.9147 13.3509 17.2305 13.4228 17.4896C13.618 18.1929 14.1871 18.7421 14.9156 18.9306C15.1841 19 15.5113 19 16.1657 19H16.5175C17.5012 19 17.993 19 18.381 18.8449C18.8982 18.6381 19.3093 18.2414 19.5235 17.7421C19.6842 17.3676 19.6842 16.8929 19.6842 15.9434Z" fill="#F0B70D"/>
</svg>
