<svg width="22" height="18" viewBox="0 0 22 18" fill="none" xmlns="http://www.w3.org/2000/svg">
<path d="M20.053 1.58403L20.064 1.59272L20.0752 1.6011C20.1238 1.63757 20.1635 1.68468 20.1911 1.73882C20.2178 1.7913 20.2326 1.84905 20.2344 1.9079L20.2344 14.9647L20.2344 14.9719C20.2351 15.0609 20.2059 15.1475 20.1516 15.218L20.9438 15.8283L20.1516 15.218C20.0973 15.2885 20.021 15.3387 19.9348 15.3608L19.9342 15.361L13.9734 16.8906C13.3408 17.0529 12.7248 16.5751 12.7248 15.922V4.08576C12.7248 3.62942 13.0338 3.23096 13.4757 3.11728L19.7157 1.5122C19.7158 1.51218 19.7158 1.51217 19.7159 1.51216C19.7738 1.4973 19.8344 1.49604 19.8928 1.50849C19.9514 1.52096 20.0062 1.54681 20.053 1.58403ZM1.0001 1.91978H1.00018L1.00003 1.90758C0.999282 1.84626 1.0127 1.78558 1.03924 1.73029C1.06516 1.67629 1.10291 1.62885 1.14967 1.59147C1.19816 1.55504 1.25396 1.5295 1.31326 1.51663C1.37129 1.50404 1.43129 1.50388 1.48933 1.51612L7.73574 3.11822C8.17803 3.23166 8.4873 3.63027 8.4873 4.08687V15.917C8.4873 16.5709 7.87001 17.0488 7.23692 16.8851L1.30213 15.3502L1.29975 15.3496C1.21408 15.3277 1.13815 15.2779 1.0839 15.2081C1.02971 15.1383 1.00024 15.0525 1.0001 14.9642V1.91978Z" fill="white" stroke="#313131" stroke-width="2"/>
</svg>
