<svg width="23" height="21" viewBox="0 0 23 21" fill="none" xmlns="http://www.w3.org/2000/svg">
<path fill-rule="evenodd" clip-rule="evenodd" d="M13.8916 1.88114C13.4022 -0.627045 9.8138 -0.627045 9.32443 1.88114C9.02668 3.40739 7.3443 4.21758 5.96537 3.49877C3.69931 2.31752 1.4619 5.12314 3.11779 7.06953C4.12542 8.25393 3.7099 10.0744 2.28816 10.7044C-0.048239 11.7395 0.750283 15.238 3.30446 15.157C4.85871 15.1077 6.02295 16.5676 5.62901 18.0718C4.98161 20.5439 8.21476 22.101 9.74393 20.0535C10.6743 18.8076 12.5417 18.8076 13.4721 20.0535C15.0012 22.101 18.2344 20.5439 17.587 18.0718C17.1931 16.5676 18.3573 15.1077 19.9116 15.157C22.4658 15.238 23.2643 11.7395 20.9278 10.7044C19.5061 10.0744 19.0906 8.25393 20.0983 7.06953C21.7542 5.12314 19.5167 2.31752 17.2506 3.49877C15.8717 4.21758 14.1894 3.40739 13.8916 1.88114ZM11.6081 14.1918C13.4171 14.1918 14.8834 12.7255 14.8834 10.9165C14.8834 9.10757 13.4171 7.64121 11.6081 7.64121C9.79917 7.64121 8.33281 9.10757 8.33281 10.9165C8.33281 12.7255 9.79917 14.1918 11.6081 14.1918Z" fill="#88984A"/>
</svg>
