<svg width="18" height="19" viewBox="0 0 18 19" fill="none" xmlns="http://www.w3.org/2000/svg">
<path d="M8.66665 1.58331C4.47889 1.58331 1.08331 4.97889 1.08331 9.16665C1.08331 13.3544 4.47889 16.75 8.66665 16.75C12.8544 16.75 16.25 13.3544 16.25 9.16665C16.25 4.97889 12.8544 1.58331 8.66665 1.58331ZM8.66665 15.4635C5.18982 15.4635 2.36977 12.6435 2.36977 9.16665C2.36977 5.68982 5.18982 2.86977 8.66665 2.86977C12.1435 2.86977 14.9635 5.68982 14.9635 9.16665C14.9635 12.6435 12.1435 15.4635 8.66665 15.4635Z" fill="white"/>
<path d="M11.6239 11.3096L9.21009 9.56443V5.37498C9.21009 5.3005 9.14915 5.23956 9.07467 5.23956H8.26048C8.186 5.23956 8.12506 5.3005 8.12506 5.37498V10.0367C8.12506 10.0807 8.14537 10.1213 8.18092 10.1467L10.9807 12.1881C11.0416 12.2321 11.1262 12.2186 11.1702 12.1594L11.6544 11.4992C11.6984 11.4366 11.6848 11.3519 11.6239 11.3096Z" fill="white"/>
</svg>
