<svg width="12" height="16" viewBox="0 0 12 16" fill="none" xmlns="http://www.w3.org/2000/svg">
<path d="M9.31711 15.9998C9.07763 15.999 8.84081 15.9546 8.62085 15.8694C8.4009 15.7842 8.20234 15.66 8.0371 15.504L1.17482 9.10671C0.849081 8.80775 0.666626 8.40581 0.666626 7.98718C0.666626 7.56855 0.849081 7.16661 1.17482 6.86765L8.28599 0.470349C8.45175 0.32123 8.64854 0.202943 8.86511 0.12224C9.08168 0.0415375 9.31381 3.14244e-09 9.54822 0C9.78264 -3.14244e-09 10.0148 0.0415375 10.2313 0.12224C10.4479 0.202943 10.6447 0.32123 10.8105 0.470349C10.9762 0.619467 11.1077 0.796497 11.1974 0.99133C11.2871 1.18616 11.3333 1.39498 11.3333 1.60587C11.3333 1.81676 11.2871 2.02558 11.1974 2.22041C11.1077 2.41524 10.9762 2.59227 10.8105 2.74139L4.94374 8.00317L10.5971 13.281C10.9282 13.5806 11.1141 13.986 11.1141 14.4085C11.1141 14.831 10.9282 15.2363 10.5971 15.536C10.4289 15.6862 10.229 15.8045 10.0092 15.8842C9.78936 15.9638 9.55406 16.0031 9.31711 15.9998Z" fill="#313131"/>
</svg>
