<svg width="22" height="22" viewBox="0 0 22 22" fill="none" xmlns="http://www.w3.org/2000/svg">
<g clip-path="url(#clip0_200_23177)">
<g clip-path="url(#clip1_200_23177)">
<path d="M20.5372 11.285C20.4487 11.1039 20.4487 10.8962 20.5372 10.7151L21.3578 9.03657C21.8146 8.10196 21.4526 6.988 20.5337 6.50044L18.8833 5.62474C18.7052 5.5303 18.5832 5.36221 18.5483 5.16373L18.2255 3.32344C18.0458 2.29881 17.098 1.61028 16.0682 1.75599L14.2183 2.01767C14.0186 2.04585 13.8211 1.98166 13.6763 1.84154L12.3335 0.542515C11.5858 -0.180817 10.4145 -0.18086 9.66682 0.542515L8.32397 1.84167C8.17908 1.98183 7.98164 2.0459 7.78201 2.0178L5.93208 1.75612C4.90191 1.61033 3.95446 2.29894 3.77472 3.32357L3.45194 5.16378C3.41709 5.36229 3.29502 5.53034 3.117 5.62483L1.46658 6.50053C0.547658 6.98805 0.185691 8.10209 0.642533 9.0367L1.46302 10.7152C1.55153 10.8963 1.55153 11.104 1.46302 11.2851L0.64249 12.9636C0.185649 13.8982 0.547615 15.0122 1.46654 15.4998L3.11696 16.3755C3.29502 16.4699 3.41709 16.638 3.45194 16.8365L3.77472 18.6768C3.93835 19.6095 4.73816 20.2637 5.65739 20.2636C5.74792 20.2636 5.83979 20.2572 5.93213 20.2442L7.78205 19.9825C7.98155 19.9542 8.17912 20.0185 8.32401 20.1586L9.66682 21.4576C10.0407 21.8194 10.5203 22.0002 11.0001 22.0001C11.4798 22.0001 11.9597 21.8193 12.3334 21.4576L13.6763 20.1586C13.8212 20.0185 14.0187 19.9545 14.2183 19.9825L16.0682 20.2442C17.0985 20.3899 18.0458 19.7014 18.2255 18.6767L18.5484 16.8365C18.5832 16.638 18.7053 16.4699 18.8833 16.3755L20.5337 15.4998C21.4526 15.0122 21.8146 13.8982 21.3578 12.9636L20.5372 11.285ZM8.46237 5.29019C9.74506 5.29019 10.7886 6.33377 10.7886 7.61646C10.7886 8.89916 9.74506 9.94273 8.46237 9.94273C7.17967 9.94273 6.1361 8.89916 6.1361 7.61646C6.1361 6.33377 7.17967 5.29019 8.46237 5.29019ZM7.26166 15.6357C7.13778 15.7596 6.9754 15.8216 6.81307 15.8216C6.65073 15.8216 6.48831 15.7596 6.36448 15.6357C6.11672 15.388 6.11672 14.9862 6.36448 14.7385L14.7386 6.3644C14.9863 6.11665 15.388 6.11665 15.6358 6.3644C15.8835 6.61216 15.8835 7.01387 15.6358 7.26163L7.26166 15.6357ZM13.5378 16.71C12.2551 16.71 11.2115 15.6664 11.2115 14.3837C11.2115 13.101 12.2551 12.0575 13.5378 12.0575C14.8205 12.0575 15.8641 13.101 15.8641 14.3837C15.8641 15.6664 14.8205 16.71 13.5378 16.71Z" fill="#F4DD8F"/>
<path d="M13.5375 13.3262C12.9545 13.3262 12.4801 13.8005 12.4801 14.3835C12.4801 14.9666 12.9545 15.4409 13.5375 15.4409C14.1206 15.4409 14.5949 14.9666 14.5949 14.3835C14.5949 13.8005 14.1206 13.3262 13.5375 13.3262Z" fill="#F4DD8F"/>
<path d="M8.46225 6.55908C7.87921 6.55908 7.40488 7.03341 7.40488 7.61645C7.40488 8.19949 7.87921 8.67386 8.46225 8.67386C9.04529 8.67386 9.51966 8.19953 9.51966 7.61645C9.51961 7.03345 9.04529 6.55908 8.46225 6.55908Z" fill="#F4DD8F"/>
</g>
</g>
<defs>
<clipPath id="clip0_200_23177">
<rect width="22" height="22" fill="white"/>
</clipPath>
<clipPath id="clip1_200_23177">
<rect width="22" height="22" fill="white"/>
</clipPath>
</defs>
</svg>
