<svg width="19" height="11" viewBox="0 0 19 11" fill="none" xmlns="http://www.w3.org/2000/svg">
<path d="M5.09308 10.7112C5.48585 11.0994 6.119 11.0958 6.50727 10.703C6.89553 10.3102 6.89188 9.67709 6.4991 9.28882L5.09308 10.7112ZM1.94685 4.78882C1.55408 4.40056 0.920925 4.40421 0.532661 4.79699C0.144398 5.18976 0.148052 5.82291 0.540825 6.21118L1.94685 4.78882ZM0.540825 4.78882C0.148052 5.17709 0.144398 5.81024 0.532661 6.20301C0.920925 6.59579 1.55408 6.59944 1.94685 6.21118L0.540825 4.78882ZM6.4991 1.71118C6.89188 1.32291 6.89553 0.689758 6.50727 0.296987C6.119 -0.0957851 5.48585 -0.0994406 5.09308 0.288823L6.4991 1.71118ZM1.24384 4.5C0.691559 4.5 0.243843 4.94772 0.243843 5.5C0.243843 6.05228 0.691559 6.5 1.24384 6.5V4.5ZM17.4296 6.5C17.9819 6.5 18.4296 6.05228 18.4296 5.5C18.4296 4.94772 17.9819 4.5 17.4296 4.5V6.5ZM6.4991 9.28882L1.94685 4.78882L0.540825 6.21118L5.09308 10.7112L6.4991 9.28882ZM1.94685 6.21118L6.4991 1.71118L5.09308 0.288823L0.540825 4.78882L1.94685 6.21118ZM1.24384 6.5L17.4296 6.5V4.5L1.24384 4.5V6.5Z" fill="#313131"/>
</svg>
