<svg width="19" height="22" viewBox="0 0 19 22" fill="none" xmlns="http://www.w3.org/2000/svg">
<path fill-rule="evenodd" clip-rule="evenodd" d="M9.49933 0C5.79577 0 2.79344 2.95492 2.79344 6.6V9.42854C2.79344 10.4486 2.4573 11.4411 1.83546 12.2572L0.415437 14.1206C-0.127863 14.8336 0.0309213 15.81 0.862317 16.1631C2.35845 16.7985 5.11459 17.6 9.49933 17.6C13.8841 17.6 16.6402 16.7985 18.1363 16.1631C18.9677 15.81 19.1265 14.8336 18.5832 14.1206L17.1631 12.2572C16.5414 11.4411 16.2052 10.4486 16.2052 9.42854V6.6C16.2052 2.95492 13.2029 0 9.49933 0ZM9.49932 21.45C8.10685 21.45 6.9522 20.4473 6.74007 19.1356C7.57742 19.208 8.49568 19.25 9.49932 19.25C10.5029 19.25 11.4212 19.208 12.2586 19.1356C12.0464 20.4473 10.8918 21.45 9.49932 21.45Z" fill="#88984A"/>
</svg>
