<svg width="16" height="16" viewBox="0 0 16 16" fill="none" xmlns="http://www.w3.org/2000/svg">
<path d="M12.9333 4.89324L11.1067 3.06657C10.8683 2.84264 10.5559 2.71414 10.2289 2.70554C9.90193 2.69694 9.5832 2.80882 9.33335 3.01991L3.33335 9.01991C3.11786 9.23722 2.98368 9.52204 2.95335 9.82657L2.66668 12.6066C2.6577 12.7042 2.67037 12.8026 2.70379 12.8948C2.73721 12.987 2.79055 13.0707 2.86001 13.1399C2.92231 13.2017 2.99619 13.2506 3.07741 13.2838C3.15864 13.3169 3.24561 13.3337 3.33335 13.3332H3.39335L6.17335 13.0799C6.47788 13.0496 6.76271 12.9154 6.98002 12.6999L12.98 6.69991C13.2129 6.45388 13.3387 6.12558 13.33 5.78693C13.3213 5.44828 13.1786 5.12691 12.9333 4.89324ZM6.05335 11.7466L4.05335 11.9332L4.23335 9.93324L8.00002 6.21324L9.80002 8.01324L6.05335 11.7466ZM10.6667 7.11991L8.88002 5.33324L10.18 3.99991L12 5.81991L10.6667 7.11991Z" fill="#313131"/>
</svg>
