<svg width="24" height="19" viewBox="0 0 24 19" fill="none" xmlns="http://www.w3.org/2000/svg">
<path d="M22.5079 0.317727C22.3307 0.177003 22.1233 0.0792436 21.9021 0.0321181C21.6808 -0.0150075 21.4516 -0.010217 21.2325 0.0461136L14.5622 1.76187C13.6783 1.98923 13.0604 2.78614 13.0604 3.69882V16.422C13.0604 17.7282 14.2923 18.6839 15.5576 18.3592L21.9882 16.709C22.3076 16.6273 22.5903 16.441 22.7915 16.1799C22.9927 15.9188 23.1007 15.5979 23.0983 15.2683V1.47504C23.0947 1.24987 23.0396 1.02852 22.9373 0.827927C22.8349 0.627333 22.688 0.452814 22.5079 0.317727ZM10.6986 3.69993C10.6986 2.78674 10.08 1.98952 9.19546 1.76264L2.50294 0.0461136C2.28718 -0.00384642 2.06303 -0.00540141 1.8466 0.0415609C1.63016 0.0885231 1.42681 0.182837 1.25116 0.317727C1.07217 0.457669 0.927891 0.63704 0.829572 0.841872C0.731253 1.0467 0.681543 1.27147 0.684314 1.49865V15.2683C0.684563 15.5959 0.793773 15.9141 0.994745 16.1728C1.19572 16.4315 1.47703 16.6159 1.79439 16.6972L8.19781 18.3533C9.46399 18.6807 10.6986 17.7248 10.6986 16.417V3.69993Z" fill="#88984A"/>
</svg>
